<?xml version="1.0" encoding="UTF-8" standalone="no"?>
<!-- Created with Inkscape (http://www.inkscape.org/) -->

<svg
   width="210mm"
   height="297mm"
   viewBox="0 0 210 297"
   version="1.1"
   id="svg5"
   xml:space="preserve"
   xmlns="http://www.w3.org/2000/svg"
   xmlns:svg="http://www.w3.org/2000/svg"><defs
     id="defs2" /><g
     id="layer1"><path
       style="fill:none;stroke:#ff0000;stroke-width:3;stroke-linecap:butt;stroke-linejoin:miter;stroke-opacity:1;stroke-dasharray:none"
       d="m 163.13201,172.62826 c -6.44389,4.06982 -13.56608,5.08727 -13.56608,5.08727 l -8.81794,1.35661 -8.4788,3.73067 -3.73067,3.73067 -1.3566,18.3142 3.39152,2.03491 5.42642,1.3566 4.40898,3.05237 0.6783,2.03491 -5.08728,-1.01746 h -5.76558 l -3.05236,-2.37406 -5.76558,2.37406 -6.78304,3.05237 -5.08727,2.03491 v -6.10473 l -5.08728,1.69576 3.05237,-4.40898 5.76558,-2.71321 5.08727,-1.35661 2.03491,-1.69575 1.01746,-2.03492 -0.33915,-13.22691 -1.35661,-2.03491 -3.39152,-1.69576 -6.78303,-3.05237 -10.174558,-3.73067 -6.783036,-3.05237 -5.426429,-3.39151 -6.443882,-4.06982 -7.800491,-5.42643 -4.870683,-4.43387 -5.821508,-5.82151 -7.632642,-11.64301 -2.457971,-9.83188 0.646835,-5.17468 1.681768,-5.69214 1.681769,-3.1048 2.199238,-3.49291 4.657206,-5.0453 3.104803,-4.01037 1.164302,-1.42304 v -1.29367 l -0.646835,-2.587333"
       id="path1012" /><path
       style="fill:none;stroke:#ff0000;stroke-width:3;stroke-linecap:butt;stroke-linejoin:miter;stroke-opacity:1;stroke-dasharray:none"
       d="m 107.14122,206.42366 -5.7631,0.26196 2.61959,-3.92938 3.92938,-2.09568 4.19134,-1.04783 2.88155,-1.57176 1.57176,-3.1435 0.52391,-9.69248"
       id="path1014" /><path
       id="path2468"
       style="fill:none;stroke:#ff0000;stroke-width:3;stroke-linecap:butt;stroke-linejoin:miter;stroke-dasharray:none;stroke-opacity:1"
       d="m 60.232656,66.380142 -3.387547,8.27835 c 0,0 -3.201525,2.018464 -4.977474,2.619478 -4.446329,1.504721 -9.205939,1.963172 -13.88339,2.357479 -2.523368,0.212719 -7.596953,0 -7.596953,0 0,0 -3.184743,3.928944 -4.126879,6.236829 -0.913961,2.238866 -1.260357,4.707527 -1.374077,7.123079 -0.12789,2.716534 0.03376,5.507361 0.785482,8.120953 0.647641,2.25175 1.843808,4.33749 3.143477,6.28695 1.40798,2.11198 4.977474,5.76296 4.977474,5.76296 0,0 0.436529,-2.96137 0.523999,-4.45348 0.09709,-1.65617 -0.300264,-3.34528 0,-4.97695 0.355144,-1.92986 0.963115,-3.898404 2.09548,-5.500959 1.322661,-1.871877 2.944096,-3.634612 4.794022,-4.98781 1.994625,-1.459038 4.421157,-2.520233 6.732406,-3.395141 2.483707,-0.940193 5.208397,-1.136597 7.858435,-1.309998 2.52835,-0.165439 5.113312,-0.239456 7.596952,0.262 1.923441,0.388344 5.500957,2.095996 5.500957,2.095996 l -0.976321,9.731762 c 0,0 3.369743,-3.801531 5.167796,-5.016804 1.278887,-0.864384 2.183252,-2.18273 3.274735,-3.274219 1.09149,-1.09149 2.447131,-1.971422 3.274219,-3.274736 0.621587,-0.97948 1.064739,-2.078127 1.457677,-3.169617 0.392932,-1.09149 0.689206,-2.238548 0.899802,-3.379337 0.173829,-0.941621 0.134645,-2.164557 0.0528,-3.125548 -0.115045,-1.350662 -0.315191,-2.434838 -0.838279,-3.685406 -0.664564,-1.588813 -1.392404,-3.245064 -2.619995,-4.452958 -0.536546,-0.527937 -0.890925,-1.091189 -1.545816,-1.462298 -0.654891,-0.371109 -1.3722,-0.927665 -2.027092,-1.298774 -0.654897,-0.371102 -1.456695,-0.680769 -2.111586,-0.96283 -0.691333,-0.297762 -1.450974,-0.519998 -2.173941,-0.729573 -1.721307,-0.498968 -3.510441,-0.662818 -5.300481,-0.750138 -1.790041,-0.08732 -5.195879,0.33074 -5.195879,0.33074 z" /><path
       style="fill:none;stroke:#ff0000;stroke-width:3;stroke-linecap:butt;stroke-linejoin:miter;stroke-dasharray:none;stroke-opacity:1"
       d="m 67.300533,98.170291 c 0,0 -3.751381,-3.980407 -6.264096,-4.650942 -2.888272,-0.770755 -6.029389,0.236785 -8.906605,1.047837 -2.406664,0.678409 -5.342356,1.11976 -6.810933,3.143507 -0.877857,1.209717 -0.06496,3.030837 -0.523917,4.453307 -0.552103,1.71116 -1.351565,3.44051 -2.61959,4.71526 -1.130472,1.13647 -4.191343,2.35763 -4.191343,2.35763 l -2.61959,-1.04784"
       id="path2470" /><path
       style="fill:none;stroke:#ff0000;stroke-width:1.5;stroke-linecap:butt;stroke-linejoin:miter;stroke-opacity:1;stroke-dasharray:none"
       d="m 31.173115,80.421402 2.095672,9.95444 3.929386,6.548975"
       id="path2472" /><path
       style="fill:none;stroke:#ff0000;stroke-width:3;stroke-linecap:butt;stroke-linejoin:miter;stroke-dasharray:none;stroke-opacity:1"
       d="m 60.250561,66.013657 c 0,0 2.411577,-3.349972 4.191344,-4.343906 1.774739,-0.991126 3.318461,-1.76593 5.270576,-2.306767 1.952115,-0.540838 4.476978,-0.607435 6.517577,-0.574781 1.680194,0.02689 3.972335,0.60979 5.844428,1.623555 1.872092,1.013765 2.400041,1.548693 3.324136,2.458393 1.985424,1.954497 3.349827,4.514707 4.453303,7.072891 1.107264,2.566965 1.847618,5.336163 2.095672,8.12073 0.310786,3.48878 -0.197005,7.025619 -0.785879,10.478357 -0.395288,2.317687 -1.017467,4.606015 -1.833713,6.810933 -0.772875,2.087759 -2.034296,3.96636 -2.881548,6.025058 -0.80925,1.96636 -1.64234,3.94757 -2.095672,6.02505 -0.392708,1.79966 -0.808232,3.6812 -0.523917,5.50114 0.205288,1.31408 0.730216,2.6375 1.571754,3.66743 0.873573,1.06913 2.054768,2.07163 3.405465,2.35763 1.826192,0.38668 3.793558,-0.29374 5.50114,-1.04784 1.198159,-0.52913 2.165701,-1.48616 3.143507,-2.35763 1.706109,-1.52057 3.261746,-3.21364 4.715266,-4.97722 1.43322,-1.73895 2.67714,-3.67601 4.25757,-5.28235 1.75151,-1.78023 5.69686,-4.67209 5.69686,-4.67209 0,0 2.8763,-1.927445 4.45331,-2.619589 1.92231,-0.843694 3.94861,-1.524729 6.02505,-1.833713 2.93654,-0.43697 5.95088,-0.278991 8.90661,0 1.85842,0.175416 3.70384,0.543648 5.50114,1.047837 2.87332,0.80604 5.67035,1.898957 8.38268,3.143505 2.80593,1.2875 5.48045,2.85335 8.12073,4.4533 2.15405,1.30531 4.22028,2.75178 6.28702,4.19135 2.92369,2.03646 5.95556,3.94949 8.64464,6.28701 2.74977,2.39027 5.39689,4.95446 7.59681,7.85877 2.19739,2.90097 4.017,6.10765 5.50114,9.43052 1.15993,2.597 2.31147,5.29321 2.61959,8.12073 0.19955,1.83117 -0.0844,3.71233 -0.52392,5.50114 -0.6074,2.47226 -1.47336,4.95204 -2.88155,7.07289 -1.43446,2.1604 -3.48972,3.86432 -5.50114,5.50114 -2.59231,2.10953 -5.39334,4.00647 -8.38268,5.50114 -2.98934,1.49467 -6.23345,2.43134 -9.43052,3.40547 -2.75517,0.83949 -5.55713,1.53717 -8.38269,2.09567 -3.54956,0.7016 -7.14296,1.1836 -10.74032,1.57175 -3.74215,0.40377 -7.50164,0.88408 -11.26423,0.78588 -4.30915,-0.11247 -8.61708,-0.6873 -12.83599,-1.57176 -3.56899,-0.74821 -7.05529,-1.88648 -10.47836,-3.1435 -2.86301,-1.05136 -5.761605,-2.10791 -8.382688,-3.66743 -2.56681,-1.52722 -5.076576,-3.27951 -7.072892,-5.50114 -1.441454,-1.60414 -2.761044,-3.44303 -3.405468,-5.50113 -0.496434,-1.58547 -0.759635,-3.39214 -0.261958,-4.97722 0.59648,-1.89976 2.322244,-3.24716 3.667426,-4.71527 2.254007,-2.45999 4.800972,-4.64032 7.334851,-6.81093 1.605307,-1.37516 3.232646,-2.73584 4.977219,-3.92938 1.4214,-0.97244 2.83895,-2.01969 4.4533,-2.61959 0.91512,-0.34006 1.9151,-0.66198 2.88155,-0.52392 0.77316,0.11045 1.63901,0.41424 2.09567,1.04783 0.36103,0.5009 0.21819,1.21783 0.26196,1.83372 0.0371,0.5226 0,1.57175 0,1.57175"
       id="path2570" /><ellipse
       style="fill:#d40000;stroke:#ff0000;stroke-width:2.70334;stroke-dasharray:none;stroke-opacity:1"
       id="path2624"
       cx="68.502266"
       cy="74.920265"
       rx="2.8989005"
       ry="2.7679207" /></g></svg>
