<?xml version="1.0" encoding="UTF-8" standalone="no"?>
<!-- Created with Inkscape (http://www.inkscape.org/) -->

<svg
   width="245.87712mm"
   height="246.36096mm"
   viewBox="0 0 245.87712 246.36096"
   version="1.1"
   id="svg5"
   xml:space="preserve"
   inkscape:version="1.2.1 (9c6d41e, 2022-07-14)"
   sodipodi:docname="dodo_lr.svg"
   xmlns:inkscape="http://www.inkscape.org/namespaces/inkscape"
   xmlns:sodipodi="http://sodipodi.sourceforge.net/DTD/sodipodi-0.dtd"
   xmlns="http://www.w3.org/2000/svg"
   xmlns:svg="http://www.w3.org/2000/svg"><sodipodi:namedview
     id="namedview7"
     pagecolor="#505050"
     bordercolor="#eeeeee"
     borderopacity="1"
     inkscape:showpageshadow="0"
     inkscape:pageopacity="0"
     inkscape:pagecheckerboard="0"
     inkscape:deskcolor="#505050"
     inkscape:document-units="mm"
     showgrid="false"
     inkscape:zoom="0.92480678"
     inkscape:cx="734.74807"
     inkscape:cy="423.33167"
     inkscape:window-width="1920"
     inkscape:window-height="1027"
     inkscape:window-x="1920"
     inkscape:window-y="25"
     inkscape:window-maximized="1"
     inkscape:current-layer="layer1" /><defs
     id="defs2" /><g
     inkscape:label="Layer 1"
     inkscape:groupmode="layer"
     id="layer1"
     transform="translate(18.403982,-15.44884)"><path
       style="fill:none;stroke:#a33025;stroke-width:6.81099;stroke-linecap:butt;stroke-linejoin:miter;stroke-dasharray:none;stroke-opacity:1"
       d="m 16.638879,189.62773 c 9.665835,6.10473 20.34912,7.6309 20.34912,7.6309 l 13.22691,2.03492 12.7182,5.596 5.596005,5.59601 2.0349,27.4713 -5.08728,3.05236 -8.13963,2.0349 -6.61347,4.57856 -1.01745,3.05236 7.63092,-1.52619 h 8.64837 l 4.57854,-3.56109 8.64837,3.56109 10.17456,4.57856 7.630905,3.05236 v -9.15709 l 7.630921,2.54364 -4.57855,-6.61347 -8.648376,-4.06982 -7.630905,-2.03491 -3.052365,-2.54363 -1.52619,-3.05238 0.508725,-19.84036 2.034915,-3.05237 5.08728,-2.54364 10.174545,-4.57855 15.261831,-5.59601 10.17456,-4.57855 8.13964,-5.08727 9.66582,-6.10473 11.70074,-8.13964 7.30603,-6.65081 8.73225,-8.73226 11.44898,-17.46452 3.68695,-14.74782 -0.97026,-7.76202 -2.52265,-8.53821 -2.52266,-4.6572 -3.29884,-5.239361 -6.98582,-7.56795 -4.6572,-6.015555 -1.74645,-2.13456 v -1.940505 l 0.97025,-3.881"
       id="path1012" /><path
       style="fill:none;stroke:#a33025;stroke-width:6.81099;stroke-linecap:butt;stroke-linejoin:miter;stroke-dasharray:none;stroke-opacity:1"
       d="m 100.62507,240.32083 8.64465,0.39294 -3.92939,-5.89407 -5.894066,-3.14352 -6.287015,-1.57175 -4.322325,-2.35764 -2.35764,-4.71525 -0.785865,-14.53872"
       id="path1014" /><path
       id="path2468"
       style="fill:none;stroke:#a33025;stroke-width:6.81099;stroke-linecap:butt;stroke-linejoin:miter;stroke-dasharray:none;stroke-opacity:1"
       d="m 170.98791,30.255552 5.08132,12.417525 c 0,0 4.80228,3.027696 7.46621,3.929217 6.66949,2.257081 13.80891,2.944758 20.82508,3.536218 3.78506,0.319079 11.39543,0 11.39543,0 0,0 4.77712,5.893416 6.19032,9.355244 1.37094,3.358299 1.89054,7.06129 2.06112,10.684618 0.19183,4.074801 -0.0507,8.261042 -1.17822,12.18143 -0.97146,3.377625 -2.76572,6.506235 -4.71522,9.430425 -2.11197,3.16797 -7.46621,8.644441 -7.46621,8.644441 0,0 -0.65479,-4.442056 -0.786,-6.680221 -0.14565,-2.484255 0.45039,-5.01792 0,-7.465425 -0.53272,-2.89479 -1.44468,-5.847606 -3.14322,-8.251439 -1.98399,-2.807815 -4.41615,-5.451918 -7.19103,-7.481715 -2.99194,-2.188557 -6.63174,-3.780349 -10.09861,-5.092711 -3.72557,-1.41029 -7.8126,-1.704896 -11.78765,-1.964997 -3.79252,-0.248159 -7.66998,-0.359184 -11.39544,0.393 -2.88516,0.582516 -8.25142,3.143994 -8.25142,3.143994 l 1.46448,14.597643 c 0,0 -5.05463,-5.702297 -7.7517,-7.525206 -1.91834,-1.296576 -3.27488,-3.274095 -4.9121,-4.911329 -1.63723,-1.637235 -3.67069,-2.957133 -4.91133,-4.912104 -0.93238,-1.46922 -1.59711,-3.11719 -2.18652,-4.754425 -0.58939,-1.637235 -1.03381,-3.357822 -1.3497,-5.069006 -0.26074,-1.412431 -0.20197,-3.246835 -0.0792,-4.688322 0.17256,-2.025993 0.47279,-3.652257 1.25742,-5.528109 0.99684,-2.383219 2.0886,-4.867596 3.92999,-6.679437 0.80482,-0.791905 1.33639,-1.636783 2.31873,-2.193447 0.98233,-0.556663 2.0583,-1.391497 3.04063,-1.948161 0.98235,-0.556653 2.18505,-1.021153 3.16739,-1.444245 1.03699,-0.446643 2.17645,-0.779997 3.26091,-1.094359 2.58195,-0.748452 5.26566,-0.994227 7.95072,-1.125207 2.68506,-0.13098 7.79382,0.49611 7.79382,0.49611 z"
       sodipodi:nodetypes="ccsscsssccsssssssccssssssssssssscc" /><path
       style="fill:none;stroke:#a33025;stroke-width:6.81099;stroke-linecap:butt;stroke-linejoin:miter;stroke-dasharray:none;stroke-opacity:1"
       d="m 160.38609,77.940775 c 0,0 5.62707,-5.97061 9.39615,-6.976413 4.3324,-1.156132 9.04408,0.355178 13.3599,1.571756 3.61,1.017613 8.01354,1.67964 10.21641,4.71526 1.31677,1.814576 0.0975,4.546256 0.78586,6.679961 0.82817,2.56674 2.02736,5.160765 3.92939,7.07289 1.69572,1.704705 6.28702,3.536445 6.28702,3.536445 l 3.92939,-1.57176"
       id="path2470"
       sodipodi:nodetypes="cssssscc" /><path
       style="fill:none;stroke:#a33025;stroke-width:3.4055;stroke-linecap:butt;stroke-linejoin:miter;stroke-dasharray:none;stroke-opacity:1"
       d="m 214.57722,51.317442 -3.14351,14.93166 -5.89408,9.823462"
       id="path2472" /><path
       style="fill:none;stroke:#a33025;stroke-width:6.81099;stroke-linecap:butt;stroke-linejoin:miter;stroke-dasharray:none;stroke-opacity:1"
       d="m 170.96106,29.705824 c 0,0 -3.61737,-5.024958 -6.28703,-6.515859 -2.66211,-1.486689 -4.97769,-2.648895 -7.90585,-3.46015 -2.92818,-0.811257 -6.71547,-0.911153 -9.77637,-0.862172 -2.5203,0.04033 -5.95851,0.914685 -8.76665,2.435333 -2.80813,1.520647 -3.60006,2.323039 -4.98621,3.687589 -2.97813,2.931746 -5.02473,6.772061 -6.67995,10.609337 -1.66089,3.850447 -2.77143,8.004244 -3.1435,12.181095 -0.46619,5.23317 0.2955,10.538428 1.17882,15.717535 0.59293,3.476531 1.5262,6.909023 2.75056,10.2164 1.15932,3.131638 3.05145,5.94954 4.32233,9.037587 1.21387,2.94954 2.46351,5.921355 3.1435,9.037575 0.58907,2.69949 1.21235,5.5218 0.78588,8.251706 -0.30793,1.97112 -1.09533,3.95625 -2.35764,5.50115 -1.31035,1.60369 -3.08214,3.10744 -5.10819,3.53644 -2.73928,0.58002 -5.69034,-0.44061 -8.25171,-1.57176 -1.79724,-0.79369 -3.24855,-2.22924 -4.71526,-3.53644 -2.55917,-2.28086 -4.89261,-4.820461 -7.07289,-7.465831 -2.14983,-2.608425 -4.01571,-5.514015 -6.38636,-7.923525 -2.627261,-2.670345 -8.545291,-7.008135 -8.545291,-7.008135 0,0 -4.31445,-2.891168 -6.679965,-3.929384 -2.883465,-1.265541 -5.922915,-2.287093 -9.037575,-2.750569 -4.40481,-0.655455 -8.92632,-0.418487 -13.359915,0 -2.78763,0.263124 -5.55576,0.815472 -8.25171,1.571755 -4.30998,1.20906 -8.505525,2.848436 -12.57402,4.715258 -4.208895,1.93125 -8.220675,4.280025 -12.181095,6.67995 -3.231075,1.957965 -6.33042,4.12767 -9.43053,6.287025 -4.385535,3.05469 -8.93334,5.924236 -12.9669599,9.430516 -4.124655,3.5854 -8.09533499,7.43169 -11.395215,11.78815 -3.296085,4.35146 -6.0255,9.16148 -8.2517101,14.14578 -1.739895,3.8955 -3.467205,7.93982 -3.929385,12.1811 -0.299325,2.74675 0.1266,5.56849 0.78588,8.25171 0.9111,3.70839 2.21004,7.42806 4.3223251,10.60933 2.15169,3.2406 5.23458,5.79648 8.25171,8.25171 3.888465,3.1643 8.09001,6.00971 12.5740199,8.25171 4.48401,2.24201 9.350175,3.64701 14.14578,5.10821 4.132755,1.25923 8.335695,2.30575 12.574035,3.1435 5.32434,1.0524 10.71444,1.7754 16.11048,2.35763 5.613225,0.60565 11.25246,1.32612 16.896345,1.17882 6.463725,-0.16871 12.92562,-1.03095 19.253985,-2.35764 5.353485,-1.12232 10.582941,-2.82972 15.717541,-4.71525 4.29452,-1.57704 8.6424,-3.16187 12.57402,-5.50115 3.85022,-2.29083 7.61487,-4.91926 10.60935,-8.25171 2.16218,-2.40621 4.14156,-5.16454 5.10819,-8.25169 0.74466,-2.37821 1.13946,-5.08821 0.39294,-7.46583 -0.89472,-2.84964 -3.48336,-4.87074 -5.50113,-7.07291 -3.38101,-3.68998 -7.20147,-6.96048 -11.00227,-10.21639 -2.40797,-2.06274 -4.84898,-4.10376 -7.46583,-5.89407 -2.1321,-1.45866 -4.25843,-3.02954 -6.67995,-3.92939 -1.37268,-0.51009 -2.87265,-0.99297 -4.322326,-0.78588 -1.15974,0.16568 -2.45852,0.62136 -3.14351,1.57175 -0.541545,0.75135 -0.327285,1.82674 -0.39294,2.75058 -0.05565,0.7839 0,2.35762 0,2.35762"
       id="path2570"
       sodipodi:nodetypes="csssssssssssssssssscssssssssssssssssssssssssssssssssc" /><ellipse
       style="fill:#d40000;stroke:#a33025;stroke-width:6.13748;stroke-dasharray:none;stroke-opacity:1"
       id="path2624"
       cx="-158.58348"
       cy="43.065735"
       rx="4.3483505"
       ry="4.1518812"
       transform="scale(-1,1)" /></g></svg>
